<?xml version="1.0" encoding="utf-8"?>
<!-- Generator: Adobe Illustrator 23.0.5, SVG Export Plug-In . SVG Version: 6.00 Build 0)  -->
<svg version="1.1" id="Layer_1" xmlns="http://www.w3.org/2000/svg" xmlns:xlink="http://www.w3.org/1999/xlink" x="0px" y="0px"
	 viewBox="0 0 72.22 60" enable-background="new 0 0 72.22 60" xml:space="preserve">
<path fill="#FFFFFF" d="M43.44,58.12c15.67,0,28.67-12.98,28.67-28.67c0-15.65-13.02-28.67-28.69-28.67
	c-14.44,0-26.65,11.11-28.38,25.12c8.98,0.14,16.51,6.73,18.07,15.32c3.06-1.3,6.61-2.05,10.33-2.05c7.1,0,13.37,2.65,17.17,6.76
	c-4.33,4.48-10.42,7.31-17.21,7.31c-3.98,0-7.74-1.01-11.03-2.71c-0.52,1.54-1.21,2.98-2.16,4.33
	C34.24,56.94,38.71,58.12,43.44,58.12z M43.42,34.33c-5.52,0-9.7-4.82-9.7-10.82c0-5.69,4.27-10.62,9.7-10.62
	c5.46,0,9.76,4.93,9.73,10.62C53.14,29.51,48.96,34.33,43.42,34.33z M14.77,59.22c7.97,0,14.66-6.64,14.66-14.66
	s-6.61-14.66-14.66-14.66C6.75,29.88,0.11,36.53,0.11,44.56C0.11,52.63,6.75,59.22,14.77,59.22z M14.81,54.07
	c-1.01,0-1.91-0.7-1.91-1.79v-5.98H7.38c-0.98,0-1.79-0.8-1.79-1.76c0-0.98,0.8-1.79,1.79-1.79h5.52v-5.98
	c0-1.07,0.9-1.76,1.91-1.76c0.98,0,1.87,0.7,1.87,1.76v5.98h5.52c0.98,0,1.76,0.8,1.76,1.79c0,0.95-0.78,1.76-1.76,1.76h-5.52v5.98
	C16.68,53.39,15.78,54.07,14.81,54.07z"/>
</svg>
